PathFileType	4	(X/Y/Z)	C:\Users\°ÂÌØÂü\Desktop\20210112\bx_n_10_1802-Unnamed.trc
DataRate	CameraRate	NumFrames	NumMarkers	Units	OrigDataRate	OrigDataStartFrame	OrigNumFrames
50.00	50.00	       8	0	mm	50.00	130	       518
Frame#	Time	
		

130	2.580	-442.08765	-47.54803	886.14392	-505.80600	-0.84989	461.39648	-800.06104	240.50688	681.25598	-806.09076	305.24026	592.80951	-719.51129	-6.88557	677.13794	-671.20081	300.35785	570.16791	-600.63580	277.79376	455.75705	-1014.11102	112.94050	697.11615	-551.12579	-51.78750	508.59387				-529.74792	60.37060	533.64008	-663.78143	58.32302	152.16898	-491.30072	225.25424	466.87952	-782.21240	55.95779	180.50307	-695.29004	79.50012	207.52760	-649.04718	-64.70268	164.76489	-697.16205	145.88101	207.08165	-753.85651	221.67079	209.01735	-610.47668	-76.77498	156.71657	-882.41541	296.07669	144.72495				-591.66254	25.80078	165.46960	-671.25024	171.00887	151.38098	-588.63464	216.29079	171.05214	-659.41730	294.75940	161.79396	-623.73273	302.82239	160.28294	-553.48340	257.22955	162.90906	-527.95288	304.40765	146.69830	-268.94263	119.86975	1112.01074	-458.27783	280.82739	887.86945	-517.61920	-72.64803	143.28456	-547.19659	-35.34063	161.51294	-787.64423	169.04684	191.94293	-504.87259	164.42537	527.23950	-621.22797	-53.19517	453.28232	-741.05878	-6.94778	210.97293	-876.32025	-78.55332	141.62575				-811.67871	-78.01460	619.73474	-703.70691	-74.50514	583.56213	-565.75342	-54.68637	541.33325				-713.99799	220.21643	670.40149	
131	2.600	-443.37561	-47.16204	885.72784	-505.75992	-0.43372	460.87347	-799.68872	241.40013	680.37433	-805.61890	305.35849	591.71539	-719.20844	-6.47895	676.62714	-670.68823	300.45529	569.36542	-600.68561	277.56216	455.56699	-1014.03278	113.30829	696.00708	-550.86200	-51.65013	508.62241				-529.86285	60.70639	533.27930	-663.92902	58.39843	152.00941	-491.02429	225.14008	466.76733	-782.24408	55.78705	180.39410	-695.34595	79.60241	207.36122	-648.98456	-64.71798	164.85092	-696.76654	145.67383	207.19261	-753.84570	221.74918	209.09930	-610.46161	-76.62152	156.53113	-882.52698	296.03412	144.76205				-591.63947	25.80098	165.29129	-671.40802	170.83884	151.73796	-588.72876	216.46651	171.22014	-659.43750	295.07797	161.53838	-623.76160	302.90869	160.06137	-553.48340	257.22955	162.90906	-528.04419	304.62152	146.80469	-271.40305	120.36167	1114.79077	-459.34744	280.64160	888.44543	-517.51447	-72.65794	143.21298	-547.23798	-35.04589	161.33238	-787.55066	168.68697	191.99873	-504.42572	164.10213	527.33124	-620.97986	-53.03328	453.22623	-741.32599	-7.08635	211.06111	-876.41119	-78.97142	141.72133				-811.43732	-77.66180	619.11285	-703.30933	-74.13729	583.30090	-565.00793	-53.98305	540.62006				-713.87781	220.36069	669.88226	
132	2.620	-444.37027	-47.31416	886.87427	-505.74948	-0.38554	460.68643	-799.44989	241.81178	679.68628	-805.32697	305.46265	590.66418	-718.42279	-4.53932	675.08191	-669.93915	300.32996	569.15820	-600.42670	277.15430	455.55032	-1013.94159	113.61060	694.53149	-550.47858	-50.96889	508.40640				-529.50299	61.85958	533.27423	-664.17511	58.43543	152.22430	-490.87659	225.04918	466.75903	-782.32935	55.72955	180.26480	-695.91705	80.11043	207.05975	-649.04718	-64.70268	164.76489	-696.64026	145.66936	206.93542	-753.78589	221.85004	209.22913	-610.55151	-76.56751	156.45560	-882.57037	296.17642	144.82063				-591.74530	25.75960	165.41299	-671.96472	171.51219	151.03394	-588.57074	216.47672	171.47417	-659.35889	295.04608	161.61700	-623.76160	302.90869	160.06137	-553.50238	257.29852	162.71121	-527.91608	304.27734	146.74899	-273.83575	120.50475	1117.37671	-459.97736	280.65973	889.21899	-517.53821	-72.62077	142.90875	-547.59210	-35.23627	161.42615	-787.29388	168.46854	191.99974	-504.15860	163.78482	526.62885	-620.82007	-52.39084	453.37274	-741.36133	-7.14222	211.19337	-876.32025	-78.55332	141.62575				-811.09131	-77.12136	618.47021	-702.93066	-73.72591	583.02533	-565.10083	-53.55248	541.03278				-713.74304	220.17685	669.46167	
133	2.640	-445.03049	-48.11860	887.96429	-505.21033	0.60305	460.84766	-798.78607	242.07408	678.71252	-804.54919	305.68332	589.78070	-718.14612	-3.90276	674.71094	-669.08386	300.32990	569.08624	-599.66064	276.82233	455.47247	-1013.72461	114.17758	693.66333	-550.06622	-49.44770	507.97058				-529.08112	62.60093	533.18402	-664.18079	57.92113	152.18443	-490.28043	223.82239	466.28134	-782.35193	55.83392	180.46962	-695.78442	80.13558	207.34465	-649.04718	-64.70268	164.76489	-696.49945	145.98410	206.45560	-753.65601	221.74741	209.35582	-610.76123	-76.55013	156.36443	-882.46967	296.17999	144.73534				-591.84222	25.73369	165.31657	-671.40289	171.05360	151.49960	-588.57074	216.47672	171.47417	-659.38422	295.06015	161.53275	-623.76160	302.90869	160.06137	-553.51294	257.37787	162.63745	-528.03406	304.55774	146.72466	-276.17493	121.03490	1120.41650	-461.28146	281.48663	890.75171	-517.53821	-72.62077	142.90875	-547.49451	-35.34582	161.61916	-787.39624	168.78677	192.32932	-503.82401	163.06960	526.41064	-620.78540	-51.83325	453.70291	-741.42194	-6.89107	211.14169	-876.32025	-78.55332	141.62575				-810.54016	-76.69305	618.03217	-702.56995	-73.18458	583.24445	-564.59192	-52.56985	540.79639				-712.78729	220.16216	668.74243	
134	2.660	-446.17673	-48.04800	889.83197	-504.26450	1.71333	460.58142	-798.17291	242.39879	677.98077	-803.20020	305.71970	589.33453	-717.56775	-3.22995	674.44928	-667.98218	299.60333	568.85480	-599.02344	275.87970	455.51328	-1013.04407	114.55356	692.72778	-549.50531	-48.84998	508.33878				-528.19629	63.98707	532.67596	-664.57813	57.69898	151.85757	-489.41284	222.75038	466.56268	-782.35193	55.83392	180.46962	-696.21814	80.60994	207.13763	-649.05115	-64.71353	164.79694				-753.47668	221.86476	209.64330	-610.74878	-76.70332	156.43567	-882.62134	296.14355	144.72720				-591.92438	25.61506	165.35184	-672.15192	171.63545	150.79726	-588.46008	216.39792	171.32028	-659.35461	294.87341	161.48108	-623.76160	302.90869	160.06137	-553.42609	257.50354	162.80547	-528.12097	304.58777	146.60715	-277.84357	121.16872	1123.57483	-462.10413	280.96802	891.03735	-517.61011	-72.38867	142.83258	-547.52240	-35.11695	161.46463	-787.29980	169.02010	192.41772	-503.27832	161.89641	525.77728	-620.27264	-50.88377	454.08603	-741.42194	-6.89107	211.14169	-876.24408	-78.71480	141.39243				-809.72650	-76.18655	617.94678	-701.37134	-72.03100	582.78149	-563.54376	-51.27400	540.45575				-712.29456	219.93410	668.59747	
135	2.680	-447.50952	-48.56794	891.70880	-504.40604	1.91210	459.73157	-797.37152	242.18118	677.36981	-802.02124	305.36804	588.65509	-716.48108	-2.88165	674.28442	-666.90558	298.25641	567.50720	-597.99359	275.04614	455.39261	-1012.15015	114.87865	692.03278	-548.44843	-47.75434	508.04987	-696.66357	145.23074	206.44650	-527.62653	64.41833	531.63861	-664.67291	57.28428	151.12173	-488.95990	221.44757	465.39279	-782.42981	55.95400	180.60222	-696.00562	80.30080	206.77702	-648.98456	-64.71798	164.85092				-753.11536	221.85275	209.71294	-610.76428	-76.43121	156.31860	-882.46967	296.17999	144.73534				-591.84222	25.73369	165.31657	-672.21698	171.62767	150.72495	-588.44287	216.06804	171.37134	-659.45099	294.98346	161.79802	-623.63239	302.85492	160.11403	-553.58398	257.25708	162.63138	-527.91595	304.56723	146.56479	-280.07596	121.47132	1126.83386	-463.01935	281.43591	893.26776	-517.54657	-72.76463	143.10730	-547.47723	-35.14785	161.09204	-787.46661	169.06024	192.37987	-502.69617	160.60361	525.67969	-619.47144	-49.53812	453.34293	-741.32324	-6.87341	211.31758	-876.32806	-78.75165	141.62605				-808.38568	-75.41341	617.23907	-700.30670	-71.71124	582.84534	-562.45844	-50.46508	539.95801				-711.02881	218.99187	667.65515	
136	2.700	-448.23773	-48.66369	894.21942	-503.24652	3.47673	459.47952	-795.80609	242.37350	677.55127	-800.88171	305.71075	588.84558	-715.12036	-2.54659	674.10968	-665.16565	298.73734	567.94592	-596.94904	274.64923	455.11743	-1011.36322	114.96989	691.56335	-547.71832	-47.52289	508.39719	-696.22821	145.50592	206.18857	-526.81079	65.17816	531.29449	-663.79584	57.95994	151.95868	-487.58749	220.79776	465.44620	-782.34814	55.90195	180.58298				-648.87213	-64.40087	164.92377				-753.03687	222.03076	209.97603	-610.76428	-76.43121	156.31860	-882.64911	296.09647	144.79663				-591.54730	25.82583	164.92856	-672.30780	171.77730	150.57726	-588.52893	216.14615	171.31870	-659.34784	294.61032	161.74416	-623.65704	302.70828	160.10609	-553.42609	257.50354	162.80547	-528.03979	304.43768	146.58080	-281.94244	121.04367	1130.41138	-463.74667	281.44400	894.92572	-517.58221	-72.28379	142.93866	-547.41968	-35.45084	161.63962	-787.30603	168.80443	192.88966	-501.70401	159.67632	525.13538	-618.54358	-48.56237	452.97864	-741.31909	-6.54269	211.39499	-876.23340	-78.66677	141.44093				-807.34283	-75.02589	617.11578	-698.95825	-70.44123	581.67712	-561.35272	-50.22226	540.30029				-710.11713	219.73329	668.29175	
137	2.720	-449.15942	-49.44580	897.27954	-501.80331	3.38456	459.17844	-794.97107	242.59464	678.02240	-799.33118	305.61438	588.85638	-713.73773	-2.10752	674.10590	-664.21442	297.93341	567.89825	-596.24963	274.08923	455.06760	-1010.59222	115.07861	691.63971	-546.59473	-47.02233	507.83292	-696.01007	145.61517	206.47467	-525.95221	65.56935	531.34766	-664.00665	57.51151	151.80664	-487.23462	220.69650	464.61890	-781.83942	56.00483	180.83421	-695.16895	81.08227	207.27019	-648.70642	-64.46309	165.12036				-752.82843	222.13086	210.14523	-610.67828	-76.46142	156.58748	-882.62134	296.14355	144.72720				-591.44952	25.83157	165.04237	-672.21698	171.62767	150.72495	-588.33795	216.09886	171.61151	-659.24194	294.63327	161.74765	-623.51813	302.74197	160.23665	-553.31561	257.34363	162.56989	-527.91608	304.27734	146.74899	-283.83939	120.98943	1134.19250	-464.89536	281.66888	897.38049	-517.60822	-72.92310	143.10712	-546.86676	-35.53797	161.35228	-786.90192	168.70760	192.94156	-500.75488	159.27045	524.65521	-618.06091	-48.10044	452.87311	-741.07697	-6.37927	212.03432	-876.23340	-78.66677	141.44093				-806.30457	-74.77222	617.01837	-697.91675	-70.53075	581.89618	-560.37354	-49.87137	539.58759				-708.23938	218.94307	668.02222	
